<?xml version="1.0" encoding="utf-8"?>
<svg version="1.1" id="Ñëîé_1" xmlns="http://www.w3.org/2000/svg" xmlns:xlink="http://www.w3.org/1999/xlink" x="0px" y="0px"
	 viewBox="0 0 600 400" xml:space="preserve">
<g>
	<g>
		<path style="fill:#6EE8FC;" d="M308.999,387.976c-3.828,0-7.483-0.771-10.21-2.346l-119.261-68.856
			c-2.668-1.54-4.138-3.681-4.138-6.026c0-2.82,2.116-5.659,5.808-7.79l115.917-66.925c6.935-4.004,17.47-4.437,23.483-0.964
			l119.261,68.855c2.668,1.54,4.137,3.68,4.138,6.025c0,2.82-2.116,5.66-5.808,7.791l-115.917,66.924
			C318.482,386.855,313.615,387.976,308.999,387.976z M310.387,233.164c-4.534,0-9.319,1.104-13.049,3.257l-115.917,66.925
			c-3.548,2.049-5.583,4.747-5.583,7.403c0,2.18,1.39,4.183,3.913,5.64l119.261,68.855c5.893,3.402,16.225,2.969,23.038-0.965
			l115.917-66.924c3.548-2.049,5.583-4.748,5.583-7.404c0-2.18-1.39-4.182-3.913-5.639l-119.261-68.855
			C317.71,233.918,314.134,233.164,310.387,233.164z"/>

			<radialGradient id="SVGID_1_" cx="-1089.9917" cy="430.8495" r="80.5089" gradientTransform="matrix(0.866 0.5 -0.866 0.5 1596.3447 573.5652)" gradientUnits="userSpaceOnUse">
			<stop  offset="0" style="stop-color:#42E8E0"/>
			<stop  offset="0.0143" style="stop-color:#40DED8"/>
			<stop  offset="0.0908" style="stop-color:#34AFB4"/>
			<stop  offset="0.1719" style="stop-color:#2A8593"/>
			<stop  offset="0.2563" style="stop-color:#226278"/>
			<stop  offset="0.345" style="stop-color:#1B4562"/>
			<stop  offset="0.4394" style="stop-color:#162F51"/>
			<stop  offset="0.542" style="stop-color:#121F44"/>
			<stop  offset="0.6591" style="stop-color:#10163D"/>
			<stop  offset="0.8226" style="stop-color:#0F133B"/>
		</radialGradient>
		<ellipse style="opacity:0.3;fill:url(#SVGID_1_);" cx="279.296" cy="243.994" rx="98.601" ry="56.927"/>

			<radialGradient id="SVGID_00000155860319601004086320000008054212094862457218_" cx="-924.9405" cy="472.919" r="80.5089" gradientTransform="matrix(0.866 0.5 -0.866 0.5 1596.3447 573.5652)" gradientUnits="userSpaceOnUse">
			<stop  offset="0" style="stop-color:#42E8E0"/>
			<stop  offset="0.0143" style="stop-color:#40DED8"/>
			<stop  offset="0.0908" style="stop-color:#34AFB4"/>
			<stop  offset="0.1719" style="stop-color:#2A8593"/>
			<stop  offset="0.2563" style="stop-color:#226278"/>
			<stop  offset="0.345" style="stop-color:#1B4562"/>
			<stop  offset="0.4394" style="stop-color:#162F51"/>
			<stop  offset="0.542" style="stop-color:#121F44"/>
			<stop  offset="0.6591" style="stop-color:#10163D"/>
			<stop  offset="0.8226" style="stop-color:#0F133B"/>
		</radialGradient>

			<ellipse style="opacity:0.3;fill:url(#SVGID_00000155860319601004086320000008054212094862457218_);" cx="385.798" cy="347.554" rx="98.601" ry="56.928"/>

			<radialGradient id="SVGID_00000160156057151905170050000014271038620685461640_" cx="-1090.1791" cy="534.454" r="61.9013" gradientTransform="matrix(0.866 0.5 -0.866 0.5 1596.3447 573.5652)" gradientUnits="userSpaceOnUse">
			<stop  offset="0" style="stop-color:#42E8E0"/>
			<stop  offset="0.0143" style="stop-color:#40DED8"/>
			<stop  offset="0.0908" style="stop-color:#34AFB4"/>
			<stop  offset="0.1719" style="stop-color:#2A8593"/>
			<stop  offset="0.2563" style="stop-color:#226278"/>
			<stop  offset="0.345" style="stop-color:#1B4562"/>
			<stop  offset="0.4394" style="stop-color:#162F51"/>
			<stop  offset="0.542" style="stop-color:#121F44"/>
			<stop  offset="0.6591" style="stop-color:#10163D"/>
			<stop  offset="0.8226" style="stop-color:#0F133B"/>
		</radialGradient>

			<ellipse style="opacity:0.3;fill:url(#SVGID_00000160156057151905170050000014271038620685461640_);" cx="189.413" cy="295.703" rx="75.812" ry="43.77"/>
		<g>

				<radialGradient id="SVGID_00000103974133475433778360000013014977806005350804_" cx="280.1717" cy="246.0403" r="9.0014" gradientUnits="userSpaceOnUse">
				<stop  offset="0" style="stop-color:#42E8E0"/>
				<stop  offset="0.0225" style="stop-color:#3FD8D7"/>
				<stop  offset="0.0983" style="stop-color:#36A9BA"/>
				<stop  offset="0.1786" style="stop-color:#2E7FA0"/>
				<stop  offset="0.2622" style="stop-color:#275C8B"/>
				<stop  offset="0.35" style="stop-color:#223F79"/>
				<stop  offset="0.4433" style="stop-color:#1D296C"/>
				<stop  offset="0.5449" style="stop-color:#1A1962"/>
				<stop  offset="0.6608" style="stop-color:#19105D"/>
				<stop  offset="0.8226" style="stop-color:#180D5B"/>
			</radialGradient>
			<circle style="fill:url(#SVGID_00000103974133475433778360000013014977806005350804_);" cx="280.172" cy="246.04" r="9.001"/>
			<path style="fill:#6EE8FC;" d="M282.738,246.04c0,1.417-1.149,2.566-2.566,2.566c-1.417,0-2.566-1.149-2.566-2.566
				c0-1.417,1.149-2.566,2.566-2.566C281.589,243.474,282.738,244.623,282.738,246.04z"/>
		</g>
		<g>

				<radialGradient id="SVGID_00000116939684858249410410000016397220012660320171_" cx="189.4125" cy="298.5445" r="9.0014" gradientUnits="userSpaceOnUse">
				<stop  offset="0" style="stop-color:#42E8E0"/>
				<stop  offset="0.0225" style="stop-color:#3FD8D7"/>
				<stop  offset="0.0983" style="stop-color:#36A9BA"/>
				<stop  offset="0.1786" style="stop-color:#2E7FA0"/>
				<stop  offset="0.2622" style="stop-color:#275C8B"/>
				<stop  offset="0.35" style="stop-color:#223F79"/>
				<stop  offset="0.4433" style="stop-color:#1D296C"/>
				<stop  offset="0.5449" style="stop-color:#1A1962"/>
				<stop  offset="0.6608" style="stop-color:#19105D"/>
				<stop  offset="0.8226" style="stop-color:#180D5B"/>
			</radialGradient>
			<circle style="fill:url(#SVGID_00000116939684858249410410000016397220012660320171_);" cx="189.413" cy="298.544" r="9.001"/>
			<path style="fill:#6EE8FC;" d="M191.979,298.544c0,1.417-1.149,2.566-2.566,2.566c-1.417,0-2.566-1.149-2.566-2.566
				c0-1.417,1.149-2.566,2.566-2.566C190.83,295.978,191.979,297.127,191.979,298.544z"/>
		</g>
		<g>

				<radialGradient id="SVGID_00000031919844856902433250000008002918106523344555_" cx="386.4125" cy="347.3772" r="9.0014" gradientUnits="userSpaceOnUse">
				<stop  offset="0" style="stop-color:#42E8E0"/>
				<stop  offset="0.0143" style="stop-color:#40DED8"/>
				<stop  offset="0.0908" style="stop-color:#34AFB4"/>
				<stop  offset="0.1719" style="stop-color:#2A8593"/>
				<stop  offset="0.2563" style="stop-color:#226278"/>
				<stop  offset="0.345" style="stop-color:#1B4562"/>
				<stop  offset="0.4394" style="stop-color:#162F51"/>
				<stop  offset="0.542" style="stop-color:#121F44"/>
				<stop  offset="0.6591" style="stop-color:#10163D"/>
				<stop  offset="0.8226" style="stop-color:#0F133B"/>
			</radialGradient>
			<circle style="fill:url(#SVGID_00000031919844856902433250000008002918106523344555_);" cx="386.413" cy="347.377" r="9.001"/>
			<circle style="fill:#6EE8FC;" cx="386.413" cy="347.377" r="2.566"/>
		</g>
		<g>

				<radialGradient id="SVGID_00000045582551059945021730000004522900583791956877_" cx="403.0989" cy="337.5442" r="9.0014" gradientUnits="userSpaceOnUse">
				<stop  offset="0" style="stop-color:#42E8E0"/>
				<stop  offset="0.0143" style="stop-color:#40DED8"/>
				<stop  offset="0.0908" style="stop-color:#34AFB4"/>
				<stop  offset="0.1719" style="stop-color:#2A8593"/>
				<stop  offset="0.2563" style="stop-color:#226278"/>
				<stop  offset="0.345" style="stop-color:#1B4562"/>
				<stop  offset="0.4394" style="stop-color:#162F51"/>
				<stop  offset="0.542" style="stop-color:#121F44"/>
				<stop  offset="0.6591" style="stop-color:#10163D"/>
				<stop  offset="0.8226" style="stop-color:#0F133B"/>
			</radialGradient>
			<circle style="fill:url(#SVGID_00000045582551059945021730000004522900583791956877_);" cx="403.099" cy="337.544" r="9.001"/>
			<path style="fill:#6EE8FC;" d="M405.665,337.544c0,1.417-1.149,2.566-2.566,2.566c-1.417,0-2.566-1.149-2.566-2.566
				c0-1.417,1.149-2.566,2.566-2.566C404.516,334.978,405.665,336.127,405.665,337.544z"/>
		</g>
		<g>

				<radialGradient id="SVGID_00000103264411907799218830000011088740788397552308_" cx="419.7853" cy="327.8601" r="9.0014" gradientUnits="userSpaceOnUse">
				<stop  offset="0" style="stop-color:#42E8E0"/>
				<stop  offset="0.0143" style="stop-color:#40DED8"/>
				<stop  offset="0.0908" style="stop-color:#34AFB4"/>
				<stop  offset="0.1719" style="stop-color:#2A8593"/>
				<stop  offset="0.2563" style="stop-color:#226278"/>
				<stop  offset="0.345" style="stop-color:#1B4562"/>
				<stop  offset="0.4394" style="stop-color:#162F51"/>
				<stop  offset="0.542" style="stop-color:#121F44"/>
				<stop  offset="0.6591" style="stop-color:#10163D"/>
				<stop  offset="0.8226" style="stop-color:#0F133B"/>
			</radialGradient>
			<circle style="fill:url(#SVGID_00000103264411907799218830000011088740788397552308_);" cx="419.785" cy="327.86" r="9.001"/>
			<path style="fill:#6EE8FC;" d="M422.351,327.86c0,1.417-1.149,2.566-2.566,2.566c-1.417,0-2.566-1.149-2.566-2.566
				s1.149-2.566,2.566-2.566C421.203,325.294,422.351,326.443,422.351,327.86z"/>
		</g>
	</g>
	<g>
		<g>
			<path style="fill:#0A0E2D;" d="M298.333,365.825l-84.999-49.074c-6.459-3.729-5.649-10.242,1.809-14.548l81.378-46.983
				c7.458-4.306,18.739-4.773,25.198-1.044l84.999,49.074c6.459,3.729,5.649,10.242-1.809,14.548l-81.378,46.983
				C316.073,369.086,304.792,369.554,298.333,365.825z"/>
			<path style="fill:#312A91;" d="M421.912,259.784v-17.574h-45.335l-53.6-30.946c-7.154-4.13-19.649-3.612-27.909,1.157
				l-51.596,29.789h-45.369v18.569h0.037c-0.204,2.795,1.355,5.493,4.793,7.477l94.143,54.353c7.154,4.13,19.649,3.612,27.909-1.157
				l90.132-52.038C419.881,266.664,422.18,263.1,421.912,259.784z"/>

				<linearGradient id="SVGID_00000011740599367263176210000006166470092759598986_" gradientUnits="userSpaceOnUse" x1="148.6267" y1="266.9363" x2="372.4569" y2="266.9363">
				<stop  offset="0" style="stop-color:#42E8E0"/>
				<stop  offset="0.1022" style="stop-color:#3CCACE"/>
				<stop  offset="0.3445" style="stop-color:#2F87A5"/>
				<stop  offset="0.564" style="stop-color:#255385"/>
				<stop  offset="0.7534" style="stop-color:#1E2D6E"/>
				<stop  offset="0.905" style="stop-color:#1A1660"/>
				<stop  offset="1" style="stop-color:#180D5B"/>
			</linearGradient>
			<path style="opacity:0.5;fill:url(#SVGID_00000011740599367263176210000006166470092759598986_);" d="M421.912,259.784v-17.574
				h-45.335l-53.6-30.946c-7.154-4.13-19.649-3.612-27.909,1.157l-51.596,29.789h-45.369v18.569h0.037
				c-0.204,2.795,1.355,5.493,4.793,7.477l94.143,54.353c7.154,4.13,19.649,3.612,27.909-1.157l90.132-52.038
				C419.881,266.664,422.18,263.1,421.912,259.784z"/>

				<linearGradient id="SVGID_00000019672824107958464060000000222747816795083422_" gradientUnits="userSpaceOnUse" x1="310.0181" y1="266.9313" x2="421.9332" y2="266.9313">
				<stop  offset="0" style="stop-color:#2B237C"/>
				<stop  offset="1" style="stop-color:#180D5B"/>
			</linearGradient>
			<path style="fill:url(#SVGID_00000019672824107958464060000000222747816795083422_);" d="M322.977,211.264
				c-3.439-1.986-8.115-2.886-12.959-2.767v116.88c5.237-0.126,10.673-1.445,14.966-3.924l90.132-52.038
				c4.765-2.751,7.064-6.314,6.796-9.631v-17.574h-45.335L322.977,211.264z"/>
			<path style="fill:#312A91;" d="M297.075,304.04l-94.143-54.354c-7.154-4.13-6.256-11.344,2.004-16.113l90.132-52.038
				c8.26-4.769,20.755-5.287,27.909-1.157l94.143,54.354c7.154,4.13,6.256,11.344-2.004,16.113l-90.132,52.038
				C316.724,307.652,304.229,308.17,297.075,304.04z"/>

				<linearGradient id="SVGID_00000124119277269090578400000004747362149200181672_" gradientUnits="userSpaceOnUse" x1="198.1031" y1="242.2095" x2="421.9492" y2="242.2095">
				<stop  offset="0" style="stop-color:#42E8E0"/>
				<stop  offset="0.1022" style="stop-color:#3CCACE"/>
				<stop  offset="0.3445" style="stop-color:#2F87A5"/>
				<stop  offset="0.564" style="stop-color:#255385"/>
				<stop  offset="0.7534" style="stop-color:#1E2D6E"/>
				<stop  offset="0.905" style="stop-color:#1A1660"/>
				<stop  offset="1" style="stop-color:#180D5B"/>
			</linearGradient>
			<path style="opacity:0.5;fill:url(#SVGID_00000124119277269090578400000004747362149200181672_);" d="M297.075,304.04
				l-94.143-54.354c-7.154-4.13-6.256-11.344,2.004-16.113l90.132-52.038c8.26-4.769,20.755-5.287,27.909-1.157l94.143,54.354
				c7.154,4.13,6.256,11.344-2.004,16.113l-90.132,52.038C316.724,307.652,304.229,308.17,297.075,304.04z"/>
			<path style="fill:#5CFFF3;" d="M299.592,292.027l-75.851-43.793c-5.764-3.328-5.041-9.14,1.615-12.982l72.62-41.927
				c6.655-3.842,16.723-4.26,22.486-0.932l75.852,43.793c5.764,3.328,5.041,9.14-1.615,12.982l-72.62,41.927
				C315.423,294.937,305.355,295.354,299.592,292.027z"/>
			<path style="fill:#42E8E0;" d="M225.355,240.932l72.62-41.927c6.655-3.842,16.723-4.26,22.486-0.932l75.852,43.793
				c1.423,0.822,2.447,1.796,3.088,2.853c1.673-3.074,0.708-6.342-3.088-8.534l-75.852-43.793
				c-5.764-3.327-15.831-2.91-22.486,0.932l-72.62,41.927c-5.012,2.894-6.656,6.904-4.702,10.13
				C221.52,243.787,223.082,242.244,225.355,240.932z"/>

				<linearGradient id="SVGID_00000018214559829633517150000018143912858146417597_" gradientUnits="userSpaceOnUse" x1="198.103" y1="242.2129" x2="312.3491" y2="242.2129">
				<stop  offset="0" style="stop-color:#42E8E0"/>
				<stop  offset="0.1022" style="stop-color:#3CCACE"/>
				<stop  offset="0.3445" style="stop-color:#2F87A5"/>
				<stop  offset="0.564" style="stop-color:#255385"/>
				<stop  offset="0.7534" style="stop-color:#1E2D6E"/>
				<stop  offset="0.905" style="stop-color:#1A1660"/>
				<stop  offset="1" style="stop-color:#180D5B"/>
			</linearGradient>
			<path style="opacity:0.5;fill:url(#SVGID_00000018214559829633517150000018143912858146417597_);" d="M300.236,304.04
				l-94.143-54.354c-7.154-4.13-8.863-10.196,2.004-16.113l90.132-52.038c4.062-2.345,9.148-3.657,14.12-3.898
				c-5.913-0.268-12.349,1.051-17.281,3.898l-90.132,52.038c-8.26,4.769-9.157,11.983-2.004,16.113l94.143,54.354
				c3.635,2.099,8.651,2.991,13.789,2.741C306.873,306.601,303.119,305.704,300.236,304.04z"/>

				<linearGradient id="SVGID_00000168802556311772869740000015074947464984322702_" gradientUnits="userSpaceOnUse" x1="228.5482" y1="307.3442" x2="415.9069" y2="184.882">
				<stop  offset="0" style="stop-color:#42E8E0"/>
				<stop  offset="0.1022" style="stop-color:#3CCACE"/>
				<stop  offset="0.3445" style="stop-color:#2F87A5"/>
				<stop  offset="0.564" style="stop-color:#255385"/>
				<stop  offset="0.7534" style="stop-color:#1E2D6E"/>
				<stop  offset="0.905" style="stop-color:#1A1660"/>
				<stop  offset="1" style="stop-color:#180D5B"/>
			</linearGradient>
			<path style="opacity:0.5;fill:url(#SVGID_00000168802556311772869740000015074947464984322702_);" d="M415.116,258.695
				l-90.132,52.038c-8.26,4.769-20.755,5.287-27.909,1.157l-94.143-54.353c-3.437-1.984-4.996-4.682-4.793-7.477h-0.037v3.848h0.037
				c-0.204,2.795,1.355,5.493,4.793,7.477l94.143,54.353c7.154,4.13,19.649,3.612,27.909-1.157l90.132-52.038
				c4.765-2.751,7.064-6.314,6.796-9.631v-3.848C422.18,252.38,419.881,255.944,415.116,258.695z"/>
			<g>
				<path style="fill:#FCCC6B;" d="M398.771,253.57c1.027,0.593,1.027,1.555,0,2.148c-1.027,0.593-2.693,0.593-3.721,0
					c-1.027-0.593-1.027-1.555,0-2.148S397.743,252.976,398.771,253.57z"/>
				<path style="fill:#FCCC6B;" d="M404.565,250.224c1.027,0.593,1.027,1.555,0,2.148s-2.693,0.593-3.721,0
					c-1.027-0.593-1.027-1.555,0-2.148C401.872,249.631,403.538,249.631,404.565,250.224z"/>
				<path style="fill:#FCCC6B;" d="M410.359,246.879c1.027,0.593,1.027,1.555,0,2.148c-1.027,0.593-2.693,0.593-3.721,0
					c-1.027-0.593-1.027-1.555,0-2.148S409.332,246.286,410.359,246.879z"/>
			</g>
		</g>
		<g>
			<path style="opacity:0.5;fill:#0B0244;" d="M301.841,281.42l-59.499-34.352c-4.521-2.61-3.954-7.17,1.266-10.184l56.964-32.888
				c5.22-3.014,13.118-3.341,17.639-0.731l59.499,34.352c4.521,2.61,3.954,7.17-1.266,10.184l-56.964,32.888
				C314.259,283.703,306.362,284.031,301.841,281.42z"/>
			<path style="opacity:0.5;fill:#5CFFF3;" d="M421.912,242.209c0.025-0.334,0.027-0.665,0-0.995v-49.088l-77.987,0.347
				l-20.948-12.095c-7.154-4.13-19.649-3.612-27.909,1.157l-19.471,11.242l-77.494,0.345v49.088h0.037
				c-0.204,2.795,1.355,5.493,4.792,7.477l94.143,54.353c7.154,4.13,19.649,3.612,27.909-1.157l90.132-52.038
				C419.407,248.368,421.692,245.232,421.912,242.209L421.912,242.209L421.912,242.209z"/>
			<path style="fill:#312A91;" d="M421.912,192.127v-17.574h-45.335l-53.6-30.946c-7.154-4.13-19.649-3.612-27.909,1.157
				l-51.596,29.789h-45.369v18.569h0.037c-0.204,2.795,1.355,5.493,4.793,7.477l94.143,54.354c7.154,4.13,19.649,3.612,27.909-1.157
				l90.132-52.038C419.881,199.007,422.18,195.444,421.912,192.127z"/>

				<linearGradient id="SVGID_00000018210401852790812470000015345928410817478812_" gradientUnits="userSpaceOnUse" x1="148.6267" y1="199.2796" x2="372.4569" y2="199.2796">
				<stop  offset="0" style="stop-color:#42E8E0"/>
				<stop  offset="0.1022" style="stop-color:#3CCACE"/>
				<stop  offset="0.3445" style="stop-color:#2F87A5"/>
				<stop  offset="0.564" style="stop-color:#255385"/>
				<stop  offset="0.7534" style="stop-color:#1E2D6E"/>
				<stop  offset="0.905" style="stop-color:#1A1660"/>
				<stop  offset="1" style="stop-color:#180D5B"/>
			</linearGradient>
			<path style="opacity:0.5;fill:url(#SVGID_00000018210401852790812470000015345928410817478812_);" d="M421.912,192.127v-17.574
				h-45.335l-53.6-30.946c-7.154-4.13-19.649-3.612-27.909,1.157l-51.596,29.789h-45.369v18.569h0.037
				c-0.204,2.795,1.355,5.493,4.793,7.477l94.143,54.354c7.154,4.13,19.649,3.612,27.909-1.157l90.132-52.038
				C419.881,199.007,422.18,195.444,421.912,192.127z"/>

				<linearGradient id="SVGID_00000137827091760233707180000011855089299889728958_" gradientUnits="userSpaceOnUse" x1="310.0181" y1="199.2746" x2="421.9332" y2="199.2746">
				<stop  offset="0" style="stop-color:#2B237C"/>
				<stop  offset="1" style="stop-color:#180D5B"/>
			</linearGradient>
			<path style="fill:url(#SVGID_00000137827091760233707180000011855089299889728958_);" d="M322.977,143.607
				c-3.439-1.986-8.115-2.886-12.959-2.767v116.88c5.237-0.126,10.673-1.445,14.966-3.924l90.132-52.038
				c4.765-2.751,7.064-6.314,6.796-9.631v-17.574h-45.335L322.977,143.607z"/>
			<path style="fill:#312A91;" d="M297.075,236.383l-94.143-54.353c-7.154-4.13-6.256-11.344,2.004-16.113l90.132-52.038
				c8.26-4.769,20.755-5.287,27.909-1.157l94.143,54.354c7.154,4.13,6.256,11.344-2.004,16.113l-90.132,52.038
				C316.724,239.995,304.229,240.513,297.075,236.383z"/>

				<linearGradient id="SVGID_00000177443065601800724870000001794386478674499985_" gradientUnits="userSpaceOnUse" x1="198.1031" y1="174.5527" x2="421.9492" y2="174.5527">
				<stop  offset="0" style="stop-color:#42E8E0"/>
				<stop  offset="0.1022" style="stop-color:#3CCACE"/>
				<stop  offset="0.3445" style="stop-color:#2F87A5"/>
				<stop  offset="0.564" style="stop-color:#255385"/>
				<stop  offset="0.7534" style="stop-color:#1E2D6E"/>
				<stop  offset="0.905" style="stop-color:#1A1660"/>
				<stop  offset="1" style="stop-color:#180D5B"/>
			</linearGradient>
			<path style="opacity:0.5;fill:url(#SVGID_00000177443065601800724870000001794386478674499985_);" d="M297.075,236.383
				l-94.143-54.353c-7.154-4.13-6.256-11.344,2.004-16.113l90.132-52.038c8.26-4.769,20.755-5.287,27.909-1.157l94.143,54.354
				c7.154,4.13,6.256,11.344-2.004,16.113l-90.132,52.038C316.724,239.995,304.229,240.513,297.075,236.383z"/>

				<linearGradient id="SVGID_00000021095926981616377960000008016197577183851429_" gradientUnits="userSpaceOnUse" x1="198.103" y1="174.5562" x2="312.3491" y2="174.5562">
				<stop  offset="0" style="stop-color:#42E8E0"/>
				<stop  offset="0.1022" style="stop-color:#3CCACE"/>
				<stop  offset="0.3445" style="stop-color:#2F87A5"/>
				<stop  offset="0.564" style="stop-color:#255385"/>
				<stop  offset="0.7534" style="stop-color:#1E2D6E"/>
				<stop  offset="0.905" style="stop-color:#1A1660"/>
				<stop  offset="1" style="stop-color:#180D5B"/>
			</linearGradient>
			<path style="opacity:0.5;fill:url(#SVGID_00000021095926981616377960000008016197577183851429_);" d="M300.236,236.383
				l-94.143-54.354c-7.154-4.13-8.863-10.196,2.004-16.113l90.132-52.038c4.062-2.345,9.148-3.656,14.12-3.898
				c-5.913-0.268-12.349,1.051-17.281,3.898l-90.132,52.038c-8.26,4.769-9.157,11.983-2.004,16.113l94.143,54.354
				c3.635,2.099,8.651,2.991,13.789,2.742C306.873,238.944,303.119,238.048,300.236,236.383z"/>

				<linearGradient id="SVGID_00000028326710353040211860000009561295979744023188_" gradientUnits="userSpaceOnUse" x1="228.5482" y1="239.6874" x2="415.9069" y2="117.2253">
				<stop  offset="0" style="stop-color:#42E8E0"/>
				<stop  offset="0.1022" style="stop-color:#3CCACE"/>
				<stop  offset="0.3445" style="stop-color:#2F87A5"/>
				<stop  offset="0.564" style="stop-color:#255385"/>
				<stop  offset="0.7534" style="stop-color:#1E2D6E"/>
				<stop  offset="0.905" style="stop-color:#1A1660"/>
				<stop  offset="1" style="stop-color:#180D5B"/>
			</linearGradient>
			<path style="opacity:0.5;fill:url(#SVGID_00000028326710353040211860000009561295979744023188_);" d="M415.116,191.038
				l-90.132,52.038c-8.26,4.769-20.755,5.287-27.909,1.157l-94.143-54.354c-3.437-1.984-4.996-4.682-4.793-7.477h-0.037v3.848h0.037
				c-0.204,2.795,1.355,5.493,4.793,7.477l94.143,54.354c7.154,4.13,19.649,3.612,27.909-1.157l90.132-52.038
				c4.765-2.751,7.064-6.314,6.796-9.631v-3.848C422.18,184.724,419.881,188.287,415.116,191.038z"/>
		</g>
		<g>
			<path style="opacity:0.2;fill:#5CFFF3;" d="M302.54,178.487c1.955,1.129,1.955,2.959,0,4.088c-1.955,1.129-5.125,1.129-7.08,0
				c-1.955-1.129-1.955-2.959,0-4.088C297.415,177.358,300.585,177.358,302.54,178.487z"/>
			<path style="opacity:0.6;fill:#5CFFF3;" d="M313.566,172.121c1.955,1.129,1.955,2.959,0,4.088c-1.955,1.129-5.125,1.129-7.08,0
				s-1.955-2.959,0-4.088C308.441,170.992,311.611,170.992,313.566,172.121z"/>
			<path style="fill:#5CFFF3;" d="M324.592,165.755c1.955,1.129,1.955,2.959,0,4.088c-1.955,1.129-5.125,1.129-7.08,0
				s-1.955-2.959,0-4.088C319.467,164.626,322.637,164.626,324.592,165.755z"/>
		</g>
		<path style="opacity:0.5;fill:#0B0244;" d="M309.41,223.027c-3.49,0-6.825-0.705-9.314-2.142l-69.609-40.188
			c-2.532-1.463-3.927-3.52-3.926-5.791c0-2.689,1.972-5.37,5.408-7.354l66.644-38.478c6.293-3.631,15.87-4.016,21.345-0.855
			l69.609,40.189c2.532,1.462,3.926,3.518,3.926,5.79c0,2.689-1.971,5.37-5.407,7.354L321.44,220.03
			C318.009,222.012,313.598,223.027,309.41,223.027z M300.804,219.655c5.085,2.937,14.023,2.553,19.927-0.855l66.645-38.477
			c2.984-1.724,4.697-3.956,4.696-6.124c0-1.743-1.142-3.362-3.215-4.56l-69.609-40.189c-5.085-2.937-14.023-2.552-19.927,0.855
			l-66.644,38.478c-2.985,1.723-4.697,3.954-4.697,6.123c-0.001,1.743,1.142,3.363,3.216,4.561L300.804,219.655z"/>
	</g>
	<g>
		<path style="fill:#6EE8FC;" d="M309,250.431c-3.829,0-7.484-0.772-10.211-2.347l-119.261-68.855
			c-2.668-1.54-4.138-3.681-4.138-6.026c0-2.82,2.116-5.659,5.808-7.79l115.917-66.925c6.935-4.005,17.47-4.437,23.483-0.964
			l119.261,68.855c2.668,1.54,4.138,3.681,4.138,6.026c-0.001,2.82-2.117,5.66-5.808,7.79l-115.917,66.925
			C318.482,249.309,313.615,250.43,309,250.431z M310.387,95.618c-4.534,0-9.319,1.104-13.049,3.257L181.421,165.8
			c-3.548,2.049-5.583,4.747-5.583,7.403c0,2.18,1.39,4.183,3.913,5.64l119.261,68.855c5.893,3.402,16.226,2.968,23.038-0.964
			l115.917-66.925c3.548-2.049,5.583-4.747,5.583-7.403c0-2.18-1.39-4.183-3.913-5.64L320.376,97.911
			C317.71,96.372,314.134,95.618,310.387,95.618z"/>

			<radialGradient id="SVGID_00000022528329771629626620000002129861430026845096_" cx="-1227.5372" cy="293.304" r="80.5089" gradientTransform="matrix(0.866 0.5 -0.866 0.5 1596.3447 573.5652)" gradientUnits="userSpaceOnUse">
			<stop  offset="0" style="stop-color:#42E8E0"/>
			<stop  offset="0.0143" style="stop-color:#40DED8"/>
			<stop  offset="0.0908" style="stop-color:#34AFB4"/>
			<stop  offset="0.1719" style="stop-color:#2A8593"/>
			<stop  offset="0.2563" style="stop-color:#226278"/>
			<stop  offset="0.345" style="stop-color:#1B4562"/>
			<stop  offset="0.4394" style="stop-color:#162F51"/>
			<stop  offset="0.542" style="stop-color:#121F44"/>
			<stop  offset="0.6591" style="stop-color:#10163D"/>
			<stop  offset="0.8226" style="stop-color:#0F133B"/>
		</radialGradient>

			<ellipse style="opacity:0.3;fill:url(#SVGID_00000022528329771629626620000002129861430026845096_);" cx="279.296" cy="106.449" rx="98.601" ry="56.928"/>

			<radialGradient id="SVGID_00000004531147556706809580000005266233583470726553_" cx="-1062.4861" cy="335.3734" r="80.5089" gradientTransform="matrix(0.866 0.5 -0.866 0.5 1596.3447 573.5652)" gradientUnits="userSpaceOnUse">
			<stop  offset="0" style="stop-color:#42E8E0"/>
			<stop  offset="0.0143" style="stop-color:#40DED8"/>
			<stop  offset="0.0908" style="stop-color:#34AFB4"/>
			<stop  offset="0.1719" style="stop-color:#2A8593"/>
			<stop  offset="0.2563" style="stop-color:#226278"/>
			<stop  offset="0.345" style="stop-color:#1B4562"/>
			<stop  offset="0.4394" style="stop-color:#162F51"/>
			<stop  offset="0.542" style="stop-color:#121F44"/>
			<stop  offset="0.6591" style="stop-color:#10163D"/>
			<stop  offset="0.8226" style="stop-color:#0F133B"/>
		</radialGradient>

			<ellipse style="opacity:0.3;fill:url(#SVGID_00000004531147556706809580000005266233583470726553_);" cx="385.798" cy="210.009" rx="98.601" ry="56.928"/>

			<radialGradient id="SVGID_00000171685753889279313510000004735827304369942425_" cx="-1227.7246" cy="396.9084" r="61.9012" gradientTransform="matrix(0.866 0.5 -0.866 0.5 1596.3447 573.5652)" gradientUnits="userSpaceOnUse">
			<stop  offset="0" style="stop-color:#42E8E0"/>
			<stop  offset="0.0143" style="stop-color:#40DED8"/>
			<stop  offset="0.0908" style="stop-color:#34AFB4"/>
			<stop  offset="0.1719" style="stop-color:#2A8593"/>
			<stop  offset="0.2563" style="stop-color:#226278"/>
			<stop  offset="0.345" style="stop-color:#1B4562"/>
			<stop  offset="0.4394" style="stop-color:#162F51"/>
			<stop  offset="0.542" style="stop-color:#121F44"/>
			<stop  offset="0.6591" style="stop-color:#10163D"/>
			<stop  offset="0.8226" style="stop-color:#0F133B"/>
		</radialGradient>

			<ellipse style="opacity:0.3;fill:url(#SVGID_00000171685753889279313510000004735827304369942425_);" cx="189.413" cy="158.157" rx="75.812" ry="43.77"/>
		<g>

				<radialGradient id="SVGID_00000057828467513945957520000014852340842105456275_" cx="280.1717" cy="108.4947" r="9.0014" gradientUnits="userSpaceOnUse">
				<stop  offset="0" style="stop-color:#42E8E0"/>
				<stop  offset="0.0143" style="stop-color:#40DED8"/>
				<stop  offset="0.0908" style="stop-color:#34AFB4"/>
				<stop  offset="0.1719" style="stop-color:#2A8593"/>
				<stop  offset="0.2563" style="stop-color:#226278"/>
				<stop  offset="0.345" style="stop-color:#1B4562"/>
				<stop  offset="0.4394" style="stop-color:#162F51"/>
				<stop  offset="0.542" style="stop-color:#121F44"/>
				<stop  offset="0.6591" style="stop-color:#10163D"/>
				<stop  offset="0.8226" style="stop-color:#0F133B"/>
			</radialGradient>
			<circle style="fill:url(#SVGID_00000057828467513945957520000014852340842105456275_);" cx="280.172" cy="108.495" r="9.001"/>
			<path style="fill:#6EE8FC;" d="M282.738,108.495c0,1.417-1.149,2.566-2.566,2.566c-1.417,0-2.566-1.149-2.566-2.566
				c0-1.417,1.149-2.566,2.566-2.566C281.589,105.928,282.738,107.077,282.738,108.495z"/>
		</g>
		<g>

				<radialGradient id="SVGID_00000134967561861055221220000008891973298185711509_" cx="189.4125" cy="160.999" r="9.0014" gradientUnits="userSpaceOnUse">
				<stop  offset="0" style="stop-color:#42E8E0"/>
				<stop  offset="0.0143" style="stop-color:#40DED8"/>
				<stop  offset="0.0908" style="stop-color:#34AFB4"/>
				<stop  offset="0.1719" style="stop-color:#2A8593"/>
				<stop  offset="0.2563" style="stop-color:#226278"/>
				<stop  offset="0.345" style="stop-color:#1B4562"/>
				<stop  offset="0.4394" style="stop-color:#162F51"/>
				<stop  offset="0.542" style="stop-color:#121F44"/>
				<stop  offset="0.6591" style="stop-color:#10163D"/>
				<stop  offset="0.8226" style="stop-color:#0F133B"/>
			</radialGradient>
			<circle style="fill:url(#SVGID_00000134967561861055221220000008891973298185711509_);" cx="189.413" cy="160.999" r="9.001"/>
			<circle style="fill:#6EE8FC;" cx="189.413" cy="160.999" r="2.566"/>
		</g>
		<g>

				<radialGradient id="SVGID_00000178197091747522749830000003322733915460178860_" cx="386.4125" cy="209.8316" r="9.0014" gradientUnits="userSpaceOnUse">
				<stop  offset="0" style="stop-color:#42E8E0"/>
				<stop  offset="0.0143" style="stop-color:#40DED8"/>
				<stop  offset="0.0908" style="stop-color:#34AFB4"/>
				<stop  offset="0.1719" style="stop-color:#2A8593"/>
				<stop  offset="0.2563" style="stop-color:#226278"/>
				<stop  offset="0.345" style="stop-color:#1B4562"/>
				<stop  offset="0.4394" style="stop-color:#162F51"/>
				<stop  offset="0.542" style="stop-color:#121F44"/>
				<stop  offset="0.6591" style="stop-color:#10163D"/>
				<stop  offset="0.8226" style="stop-color:#0F133B"/>
			</radialGradient>
			<circle style="fill:url(#SVGID_00000178197091747522749830000003322733915460178860_);" cx="386.413" cy="209.832" r="9.001"/>
			<path style="fill:#6EE8FC;" d="M388.979,209.832c0,1.417-1.149,2.566-2.566,2.566s-2.566-1.149-2.566-2.566
				c0-1.417,1.149-2.566,2.566-2.566S388.979,208.414,388.979,209.832z"/>
		</g>
		<g>

				<radialGradient id="SVGID_00000100381155611701694640000014633607558361776807_" cx="403.0989" cy="199.9986" r="9.0014" gradientUnits="userSpaceOnUse">
				<stop  offset="0" style="stop-color:#42E8E0"/>
				<stop  offset="0.0143" style="stop-color:#40DED8"/>
				<stop  offset="0.0908" style="stop-color:#34AFB4"/>
				<stop  offset="0.1719" style="stop-color:#2A8593"/>
				<stop  offset="0.2563" style="stop-color:#226278"/>
				<stop  offset="0.345" style="stop-color:#1B4562"/>
				<stop  offset="0.4394" style="stop-color:#162F51"/>
				<stop  offset="0.542" style="stop-color:#121F44"/>
				<stop  offset="0.6591" style="stop-color:#10163D"/>
				<stop  offset="0.8226" style="stop-color:#0F133B"/>
			</radialGradient>
			<circle style="fill:url(#SVGID_00000100381155611701694640000014633607558361776807_);" cx="403.099" cy="199.999" r="9.001"/>
			<circle style="fill:#6EE8FC;" cx="403.099" cy="199.999" r="2.566"/>
		</g>
		<g>

				<radialGradient id="SVGID_00000086659002111306489890000009465617241610715310_" cx="419.7853" cy="190.3145" r="9.0014" gradientUnits="userSpaceOnUse">
				<stop  offset="0" style="stop-color:#42E8E0"/>
				<stop  offset="0.0143" style="stop-color:#40DED8"/>
				<stop  offset="0.0908" style="stop-color:#34AFB4"/>
				<stop  offset="0.1719" style="stop-color:#2A8593"/>
				<stop  offset="0.2563" style="stop-color:#226278"/>
				<stop  offset="0.345" style="stop-color:#1B4562"/>
				<stop  offset="0.4394" style="stop-color:#162F51"/>
				<stop  offset="0.542" style="stop-color:#121F44"/>
				<stop  offset="0.6591" style="stop-color:#10163D"/>
				<stop  offset="0.8226" style="stop-color:#0F133B"/>
			</radialGradient>
			<circle style="fill:url(#SVGID_00000086659002111306489890000009465617241610715310_);" cx="419.785" cy="190.314" r="9.001"/>
			<path style="fill:#6EE8FC;" d="M422.351,190.314c0,1.417-1.149,2.566-2.566,2.566c-1.417,0-2.566-1.149-2.566-2.566
				c0-1.417,1.149-2.566,2.566-2.566C421.203,187.748,422.351,188.897,422.351,190.314z"/>
		</g>
	</g>
</g>
</svg>
